<?xml version="1.0" encoding="UTF-8"?> <svg xmlns="http://www.w3.org/2000/svg" id="Layer_1" data-name="Layer 1" viewBox="0 0 398.57 85.576"><defs><style>.cls-1{fill:none;}.cls-2{fill:#ce4d32;}.cls-3{fill:#4786c2;}.cls-4{fill:#f0b65b;}.cls-5{fill:#68c2d3;}.cls-6{fill:#25356c;}</style></defs><path class="cls-1" d="M474.285,101.148c-.625,1.7-.987,2.8-1.025,2.921Q473.8,102.6,474.285,101.148Z" transform="translate(-108.769 -46.615)"></path><path class="cls-2" d="M489.211,61.785c-.589.9-1.126,1.745-1.621,2.546-.648,1.26-1.234,2.741-1.732,3.863a19.678,19.678,0,0,0,4.968-.819c9.939-3.25,2.007,4.969-5.543,13.121-4.977,5.373-9.146,15.622-11,20.652-.326.969-.671,1.68-1.029,2.657,0,.007,0,.275,0,.275v-.275a50.643,50.643,0,0,1-2.861,7.249S490.794,97.7,498.263,80.5c6.04-13.913,5.057-24.5,9.076-29.372C507.339,51.124,495.816,51.7,489.211,61.785Z" transform="translate(-108.769 -46.615)"></path><path class="cls-3" d="M490.826,67.375a19.677,19.677,0,0,1-4.967.819,8.761,8.761,0,0,1-.76,1.461,14.462,14.462,0,0,1-1.172,1.393c-7.741,8.066-19.987.1-28.3-14.265-.117-.17-.232-.34-.343-.513a169.933,169.933,0,0,1,10.885,20.949c8.9,19.782,6,29.655,6,29.7l0-.01c.039-.118,1.487-4.065,2.112-5.764,1.852-5.03,6.021-15.279,11-20.652C492.833,72.344,500.765,64.125,490.826,67.375Z" transform="translate(-108.769 -46.615)"></path><path class="cls-3" d="M473.26,104.069l0,.01h0Z" transform="translate(-108.769 -46.615)"></path><path class="cls-4" d="M486.575,46.615c-3.224,7.031-7.719,8.4-15.67,7.769-7.4-.589-17.58-9.337-17.489-4.005a8.536,8.536,0,0,0,.8,3.828c.455.879.928,1.738,1.412,2.576,5.519,7.9,20.084,11.779,29.71,11.434.175-.006.35-.014.522-.023.5-1.122,1.083-2.6,1.73-3.863.374-.569.529-.855.827-1.317C484.651,56.973,486.575,46.615,486.575,46.615Z" transform="translate(-108.769 -46.615)"></path><path class="cls-5" d="M485.337,68.217c-9.626.345-24.191-3.538-29.71-11.434,8.313,14.364,20.559,22.331,28.3,14.265a14.462,14.462,0,0,0,1.172-1.393,8.761,8.761,0,0,0,.76-1.461C485.687,68.2,485.512,68.211,485.337,68.217Z" transform="translate(-108.769 -46.615)"></path><path class="cls-6" d="M342.093,85.089a22.507,22.507,0,0,0-16.572,6.8,22.978,22.978,0,0,0-6.74,16.747,23.315,23.315,0,1,0,46.623,0,22.968,22.968,0,0,0-23.311-23.551Zm11.465,35.722h0a16.105,16.105,0,0,1-22.826-.032,16.6,16.6,0,0,1-4.708-12.14,16.568,16.568,0,0,1,4.71-12.176,15.943,15.943,0,0,1,22.685.034,16.536,16.536,0,0,1,4.744,12.142A16.772,16.772,0,0,1,353.558,120.811Z" transform="translate(-108.769 -46.615)"></path><polygon class="cls-6" points="303.427 85.037 303.427 39.013 296.717 39.013 296.717 72.388 270.09 39.013 264.679 39.013 264.679 85.037 271.389 85.037 271.389 51.803 298.016 85.037 303.427 85.037"></polygon><rect class="cls-6" x="195.063" y="39.013" width="6.909" height="46.024"></rect><path class="cls-6" d="M456.981,118.819a10.713,10.713,0,0,0-2.019-6.561,11.942,11.942,0,0,0-5.095-3.988c-2.1-.864-4.42-1.674-6.886-2.408s-4.791-1.344-6.9-1.81a15.966,15.966,0,0,1-5.542-2.243,4.883,4.883,0,0,1-2.392-4.157,4.985,4.985,0,0,1,3.131-4.67,16.264,16.264,0,0,1,7.2-1.441,21.623,21.623,0,0,1,13.786,4.67l3.732-4.913c-4.2-4.121-10.023-6.209-17.317-6.209-5.143,0-9.438,1.265-12.764,3.76s-4.94,5.437-4.94,9.006a10.512,10.512,0,0,0,1.51,5.72,10.906,10.906,0,0,0,3.931,3.747,29.957,29.957,0,0,0,5.5,2.346c2,.64,4.056,1.2,6.1,1.673,2.06.475,3.965,1,5.658,1.566a11.773,11.773,0,0,1,4.35,2.451,5.537,5.537,0,0,1-.814,8.77,12.568,12.568,0,0,1-6.858,1.611c-6.66,0-12.193-2.17-16.453-6.454l-4.074,4.857a22.907,22.907,0,0,0,8.211,5.636,28.93,28.93,0,0,0,11.582,2.413,20.15,20.15,0,0,0,12.4-3.793A11.392,11.392,0,0,0,456.981,118.819Z" transform="translate(-108.769 -46.615)"></path><polygon class="cls-6" points="78.092 64.813 78.092 58.563 53.236 58.532 53.236 45.532 79.828 45.532 79.828 39.013 46.286 39.013 46.286 85.037 80.496 85.037 80.496 78.519 53.192 78.519 53.238 64.813 78.092 64.813"></polygon><path class="cls-6" d="M237.289,124.052l-3.978-4.417a17.437,17.437,0,0,1-13.628,5.9,16.526,16.526,0,0,1-12.126-4.653c-3.1-3.086-4.676-7.207-4.676-12.245,0-5.079,1.516-9.208,4.5-12.272s7.02-4.626,11.964-4.626a16.77,16.77,0,0,1,12.642,5.211l4.55-4.364a17.267,17.267,0,0,0-6.824-5.3,25.431,25.431,0,0,0-10.767-2.2c-6.922,0-12.595,2.264-16.865,6.73a23.477,23.477,0,0,0-6.448,16.821c0,7.131,2.132,12.9,6.338,17.152s9.962,6.4,17.108,6.4a25.579,25.579,0,0,0,10.8-2.272A18.827,18.827,0,0,0,237.289,124.052Z" transform="translate(-108.769 -46.615)"></path><path class="cls-6" d="M140.379,125.111c4.4-4.338,6.635-10.083,6.635-17.078a26,26,0,0,0-1.367-8.638,20.494,20.494,0,0,0-4.286-7.045h0a19.191,19.191,0,0,0-8-4.933A36.931,36.931,0,0,0,121.3,85.628h-12.53v6.519h12.4c12.345,0,18.6,5.344,18.6,15.886,0,5.261-1.552,9.472-4.61,12.515s-7.813,4.585-14.129,4.585H115.75l-.093-20H109.02v26.521h11.41C129.262,131.652,135.975,129.452,140.379,125.111Z" transform="translate(-108.769 -46.615)"></path><rect class="cls-6" x="135.525" y="39.013" width="6.911" height="46.024"></rect><path class="cls-6" d="M295.989,118.819a10.713,10.713,0,0,0-2.019-6.561,11.937,11.937,0,0,0-5.1-3.988c-2.1-.864-4.42-1.674-6.885-2.408s-4.8-1.346-6.9-1.81a15.953,15.953,0,0,1-5.541-2.243,4.882,4.882,0,0,1-2.393-4.157,4.985,4.985,0,0,1,3.131-4.67,16.265,16.265,0,0,1,7.2-1.441,21.62,21.62,0,0,1,13.785,4.67L295,91.3c-4.2-4.121-10.023-6.209-17.317-6.209-5.14,0-9.435,1.265-12.766,3.76s-4.938,5.437-4.938,9.006a10.5,10.5,0,0,0,1.511,5.72,10.9,10.9,0,0,0,3.93,3.747,29.957,29.957,0,0,0,5.5,2.346c2,.638,4.052,1.2,6.1,1.673s3.962,1,5.659,1.566a11.78,11.78,0,0,1,4.348,2.451,5.532,5.532,0,0,1-.814,8.77,12.568,12.568,0,0,1-6.858,1.611c-6.66,0-12.192-2.17-16.453-6.454l-4.074,4.857a22.911,22.911,0,0,0,8.212,5.636,28.921,28.921,0,0,0,11.581,2.413,20.15,20.15,0,0,0,12.4-3.793A11.392,11.392,0,0,0,295.989,118.819Z" transform="translate(-108.769 -46.615)"></path><path class="cls-6" d="M461.643,127.944h-1.377v3.565h-.653v-3.565h-1.382v-.577h3.412Z" transform="translate(-108.769 -46.615)"></path><path class="cls-6" d="M465.832,131.509v-2.981l-1.232,2.257h-.36L463,128.528v2.981h-.653v-4.142h.7l1.372,2.532,1.37-2.532h.7v4.142Z" transform="translate(-108.769 -46.615)"></path></svg> 